<?xml version="1.0" encoding="UTF-8"?>
<svg width="200" height="200" viewBox="0 0 200 200" fill="none" xmlns="http://www.w3.org/2000/svg">
  <circle cx="100" cy="100" r="90" fill="#2196F3"/>
  <path d="M100 40C67.9 40 42 65.9 42 98C42 130.1 67.9 156 100 156C132.1 156 158 130.1 158 98C158 65.9 132.1 40 100 40ZM100 144C74.3 144 54 123.7 54 98C54 72.3 74.3 52 100 52C125.7 52 146 72.3 146 98C146 123.7 125.7 144 100 144Z" fill="white"/>
  <path d="M100 64C81.2 64 66 79.2 66 98C66 116.8 81.2 132 100 132C118.8 132 134 116.8 134 98C134 79.2 118.8 64 100 64ZM100 120C87.9 120 78 110.1 78 98C78 85.9 87.9 76 100 76C112.1 76 122 85.9 122 98C122 110.1 112.1 120 100 120Z" fill="white"/>
  <circle cx="100" cy="98" r="14" fill="white"/>
</svg> 